<svg version="1.1" id="Layer_1" xmlns="http://www.w3.org/2000/svg" xmlns:xlink="http://www.w3.org/1999/xlink" x="0px" y="0px"
	 width="100%" viewBox="0 0 1024 1024" enable-background="new 0 0 1024 1024" xml:space="preserve">
<path fill="#000000" opacity="1.000000" stroke="none" 
	d="
M569.999878,228.417725 
	C550.339172,228.411514 531.173706,228.125916 512.018860,228.457367 
	C471.538940,229.157883 439.364105,246.595947 414.563263,278.092560 
	C401.413757,294.792206 393.544556,313.926697 390.562805,334.941650 
	C383.396667,385.447906 406.828339,434.579529 451.842804,458.098999 
	C456.229004,460.390747 460.776276,462.348267 465.554230,463.147583 
	C467.168030,461.176636 466.611389,459.268372 466.620392,457.507599 
	C466.677490,446.344757 466.638611,435.181396 466.656921,424.018280 
	C466.677582,411.404480 476.212585,401.151184 489.193146,399.750702 
	C500.584869,398.521667 512.528870,407.208099 515.235779,418.769897 
	C515.955627,421.844391 516.321472,424.963074 516.317383,428.160492 
	C516.276428,460.150360 516.230896,492.140808 516.417542,524.129700 
	C516.444519,528.760071 515.326355,530.316772 510.373901,530.495178 
	C438.319122,533.090271 372.127167,487.810150 344.567627,423.089966 
	C336.843231,404.950226 332.121613,386.074829 330.503845,366.270782 
	C323.297760,278.057281 381.944275,194.043320 473.452606,173.978287 
	C486.781921,171.055573 500.309723,169.534744 514.022156,169.597076 
	C545.178406,169.738678 576.338135,169.428680 607.491333,169.769562 
	C619.528625,169.901276 629.092834,175.640442 634.367432,186.663162 
	C639.462952,197.311783 639.061401,208.066895 631.513306,217.683960 
	C626.119263,224.556503 619.044373,228.486481 609.985901,228.416885 
	C596.824646,228.315750 583.661987,228.408096 569.999878,228.417725 
z"/>
<path fill="#000000" opacity="1.000000" stroke="none" 
	d="
M596.685181,430.999939 
	C596.685730,394.857452 596.675842,359.215027 596.691772,323.572571 
	C596.699280,306.750824 606.800293,295.509705 623.409485,293.767944 
	C638.273010,292.209229 653.254272,306.345673 653.299194,322.235565 
	C653.385376,352.714600 653.313049,383.194092 653.309509,413.673370 
	C653.306519,439.489166 653.340088,465.304993 653.297485,491.120697 
	C653.258850,514.477234 637.554260,530.125977 614.042908,530.320557 
	C610.045898,530.353638 606.035034,530.133728 602.054810,530.397400 
	C597.906921,530.672180 596.566040,529.034729 596.609863,524.935852 
	C596.782593,508.781982 596.679504,492.625214 596.680298,476.469513 
	C596.680969,461.479645 596.683655,446.489807 596.685181,430.999939 
z"/>
<path fill="#000000" opacity="1.000000" stroke="none" 
	d="
M581.426270,383.009735 
	C581.397461,430.173553 581.372192,476.839386 581.335510,523.505249 
	C581.330200,530.249329 581.304932,530.257141 574.370544,530.260559 
	C562.037415,530.266602 549.701843,530.120911 537.372559,530.338318 
	C533.052490,530.414490 531.563293,529.029907 531.573975,524.616760 
	C531.695190,474.451202 531.609558,424.285248 531.679871,374.119507 
	C531.697937,361.243927 543.843384,349.715729 556.815918,349.910645 
	C570.082153,350.110016 581.116821,360.946625 581.344727,374.012482 
	C581.394165,376.845215 581.400146,379.678650 581.426270,383.009735 
z"/>
<path fill="#000000" opacity="1.000000" stroke="none" 
	d="
M763.052368,726.080444 
	C745.754028,715.598145 734.559265,701.068542 731.223206,681.285461 
	C724.610779,642.072754 753.001709,611.296082 785.769287,606.487671 
	C822.336914,601.121643 852.229309,626.960449 858.583740,655.387390 
	C867.239380,694.109131 842.567993,726.451416 806.399292,733.276855 
	C791.275635,736.130798 776.957031,733.254272 763.052368,726.080444 
M755.905945,658.393799 
	C753.943054,665.573608 753.888184,672.757751 755.321045,680.075623 
	C760.299011,705.500549 788.583069,719.948730 812.207153,709.343201 
	C826.296936,703.017944 839.493042,685.697449 835.807312,663.188232 
	C832.674622,644.056519 817.297974,628.933838 798.346985,627.417053 
	C778.879883,625.859070 761.762390,638.105591 755.905945,658.393799 
z"/>
<path fill="#000000" opacity="1.000000" stroke="none" 
	d="
M188.395386,622.373474 
	C219.148117,595.318054 263.290222,603.201050 283.243286,634.239563 
	C277.498352,638.780212 271.688446,643.372192 266.258057,647.664246 
	C263.757965,647.470520 263.325867,645.821594 262.463409,644.675842 
	C251.461472,630.059387 235.732346,624.259338 220.506638,629.228760 
	C203.928680,634.639526 192.976624,650.572693 192.202515,668.311768 
	C191.023987,695.318665 209.466614,709.050476 227.753845,712.366821 
	C246.958115,715.849548 264.759369,704.414185 267.268677,686.449524 
	C265.928436,684.641479 263.929993,685.372498 262.215210,685.352844 
	C254.052307,685.259155 245.886581,685.202332 237.724747,685.324524 
	C234.497925,685.372803 233.215973,684.283447 233.488525,680.941711 
	C233.785736,677.297974 233.717667,673.613770 233.622314,669.951965 
	C233.543671,666.931885 234.887421,665.829468 237.824158,665.836670 
	C253.985046,665.876282 270.146179,665.826172 286.307220,665.791260 
	C288.522217,665.786499 290.202057,666.187622 290.319427,668.975403 
	C291.029999,685.851379 289.078308,701.906494 277.013702,715.122559 
	C263.674683,729.734802 246.790085,735.676941 227.559708,733.990845 
	C203.526657,731.883789 184.714218,720.665344 174.099243,698.368164 
	C162.224030,673.423706 166.963547,642.579773 188.395386,622.373474 
z"/>
<path fill="#000000" opacity="1.000000" stroke="none" 
	d="
M606.705078,608.728760 
	C617.687683,610.481323 628.160278,612.335266 637.553589,617.849060 
	C660.410217,631.265442 668.496582,654.473450 666.818542,674.168823 
	C664.498535,701.399292 649.622253,719.582947 623.586792,728.373596 
	C615.445374,731.122498 606.945190,731.685425 598.476990,731.888123 
	C586.655518,732.171204 574.821228,731.876404 562.994812,732.024719 
	C559.512268,732.068359 558.467407,730.900940 558.481812,727.379272 
	C558.635437,689.896118 558.618774,652.412231 558.656860,614.928589 
	C558.663574,608.297607 558.753784,608.074829 565.279480,608.123657 
	C578.933899,608.225830 592.586914,608.500732 606.705078,608.728760 
M638.071899,689.503906 
	C650.545593,664.420410 637.017029,633.906250 607.931396,630.026917 
	C601.522583,629.172058 595.031372,628.900513 588.570312,628.481079 
	C582.175659,628.065979 581.532898,628.737305 581.444580,635.368774 
	C581.409119,638.029785 581.459229,640.691895 581.455139,643.353516 
	C581.422729,664.318909 581.468567,685.285095 581.280823,706.249146 
	C581.244324,710.328369 582.494629,711.992126 586.686951,711.729492 
	C591.162292,711.449158 595.682190,711.886658 600.158386,711.613159 
	C616.167480,710.634949 629.578308,704.966431 638.071899,689.503906 
z"/>
<path fill="#000000" opacity="1.000000" stroke="none" 
	d="
M379.137756,620.043701 
	C392.014069,655.050049 404.767487,689.685547 417.519287,724.321655 
	C417.863617,725.256958 418.116943,726.233459 418.539612,727.130981 
	C420.112366,730.470520 419.374786,732.113708 415.399017,732.007935 
	C410.074432,731.866333 404.741486,731.885986 399.415771,732.002808 
	C396.612762,732.064270 395.262543,730.841431 394.415161,728.220154 
	C392.369781,721.893188 389.899719,715.701843 387.918762,709.356506 
	C387.059998,706.605713 385.712952,705.793762 382.905060,705.822754 
	C367.920959,705.977295 352.933167,706.048828 337.950562,705.851318 
	C334.638123,705.807678 333.228729,706.925903 332.274811,709.909302 
	C330.402222,715.765869 327.997070,721.454651 326.195801,727.330505 
	C325.062408,731.027527 322.996338,732.219421 319.260529,732.053345 
	C313.326996,731.789429 307.373138,731.982849 301.868896,731.982849 
	C300.473236,729.672302 301.520477,728.331726 302.012787,727.005798 
	C315.905945,689.591125 329.924316,652.222595 343.651306,614.747253 
	C345.489685,609.728516 347.984192,607.558777 353.373016,608.011353 
	C358.498718,608.441772 363.702759,608.338745 368.846436,608.033630 
	C373.200623,607.775391 375.771271,609.203796 376.717407,613.615417 
	C377.165070,615.702820 378.229553,617.657959 379.137756,620.043701 
M361.496124,685.981873 
	C367.282745,685.981873 373.069366,685.981873 379.623413,685.981873 
	C373.282684,667.595215 367.121246,649.728516 360.959808,631.861755 
	C360.495270,631.911438 360.030731,631.961060 359.566223,632.010742 
	C353.312225,649.719360 347.058228,667.427979 340.506348,685.980103 
	C347.914307,685.980103 354.206055,685.980103 361.496124,685.981873 
z"/>
<path fill="#000000" opacity="1.000000" stroke="none" 
	d="
M463.624268,707.428772 
	C480.230896,717.622559 499.612122,712.861755 506.995850,696.985474 
	C509.291077,692.050293 509.608398,686.694824 509.622528,681.362244 
	C509.681732,659.036987 509.804810,636.710022 509.566406,614.387329 
	C509.512390,609.331055 511.016998,607.434570 516.085266,607.853516 
	C520.387878,608.209167 524.743774,607.990784 529.074158,607.913391 
	C532.002686,607.861023 533.329041,609.083679 533.262207,612.084473 
	C532.653015,639.391663 534.210083,666.762207 532.085449,694.000977 
	C530.706482,711.679321 520.107239,723.878052 503.823059,730.199463 
	C487.324860,736.604004 470.418182,736.175415 454.345856,728.490295 
	C437.605652,720.485901 429.201721,706.344482 428.882294,688.080688 
	C428.448273,663.266174 428.990295,638.435547 428.963562,613.612000 
	C428.958923,609.299255 430.527039,607.561890 434.866821,607.877625 
	C438.512573,608.142883 442.215424,608.176697 445.853485,607.859741 
	C450.766418,607.431763 452.525452,609.067871 452.460907,614.266846 
	C452.173553,637.421875 452.326752,660.582092 452.262787,683.740234 
	C452.236237,693.351807 455.803345,701.203979 463.624268,707.428772 
z"/>
<path fill="#000000" opacity="1.000000" stroke="none" 
	d="
M710.312744,688.000000 
	C710.319458,701.324036 710.215271,714.149658 710.398376,726.971191 
	C710.454956,730.931946 709.013611,732.316223 705.136719,732.102356 
	C700.486694,731.845764 695.812317,731.944702 691.150513,732.017151 
	C688.066467,732.065125 686.678162,730.951599 686.689148,727.625610 
	C686.814514,689.487061 686.864197,651.348083 686.839478,613.209229 
	C686.836975,609.379272 688.239807,607.723816 692.130737,607.898682 
	C696.119263,608.077881 700.140503,608.150452 704.115601,607.849365 
	C708.836365,607.491760 710.473694,609.162415 710.428894,614.054016 
	C710.204773,638.534302 710.317932,663.017700 710.312744,688.000000 
z"/>
<path fill="#000000" opacity="1.000000" stroke="none" 
	d="
M762.129395,822.867676 
	C761.953308,829.126709 761.049805,829.884338 755.862000,829.325562 
	C753.521057,829.073425 752.696533,827.979309 752.699280,825.797241 
	C752.717102,811.650513 752.697571,797.503784 752.717529,783.357056 
	C752.719666,781.853943 752.752502,780.227661 754.745728,779.883118 
	C756.792480,779.529297 758.731812,779.642517 760.172791,781.474792 
	C763.977356,786.312927 767.785522,791.148254 771.617188,795.964905 
	C775.846069,801.281006 780.102417,806.575195 785.103577,812.824524 
	C785.103577,802.861145 785.248901,793.992432 785.042297,785.131897 
	C784.938904,780.700317 786.688171,779.169861 790.984192,779.658691 
	C793.223083,779.913330 794.317261,780.674316 794.313904,782.980652 
	C794.292725,797.293823 794.314941,811.607056 794.294983,825.920227 
	C794.293152,827.242310 794.286682,828.826904 792.577087,829.087341 
	C790.131104,829.459961 787.561523,829.912964 785.680664,827.537842 
	C782.582458,823.625366 779.476624,819.718933 776.372498,815.811157 
	C771.868591,810.141174 767.363281,804.472290 762.131348,797.887695 
	C762.131348,806.863525 762.131348,814.624634 762.129395,822.867676 
z"/>
<path fill="#000000" opacity="1.000000" stroke="none" 
	d="
M483.213501,828.645203 
	C464.524597,833.860046 452.216034,821.997314 450.086517,809.363525 
	C447.885376,796.304932 456.675293,782.338318 469.422150,779.850586 
	C484.053558,776.995117 496.930267,785.588562 499.397064,799.854919 
	C501.695892,813.149841 495.830933,823.779968 483.213501,828.645203 
M459.402100,802.944031 
	C459.386932,803.776733 459.333069,804.610779 459.362549,805.441956 
	C459.691010,814.694885 466.612244,821.832397 475.031403,821.615173 
	C483.528137,821.395935 491.000458,813.197693 490.586060,804.549377 
	C490.109863,794.612183 483.346771,787.875366 474.151947,788.179199 
	C466.853027,788.420349 462.281677,792.770874 459.402100,802.944031 
z"/>
<path fill="#000000" opacity="1.000000" stroke="none" 
	d="
M706.612122,779.899719 
	C717.021179,778.786804 725.980957,780.528259 732.339111,789.231567 
	C739.959229,799.662109 738.721191,814.624451 729.511902,823.477600 
	C720.891968,831.764160 705.846375,832.275574 695.978516,824.617432 
	C682.111389,813.855835 685.603271,788.641846 701.961609,781.517456 
	C703.329834,780.921631 704.776001,780.504639 706.612122,779.899719 
M698.892273,813.370300 
	C702.397400,819.139954 707.468750,822.402100 714.245422,821.365601 
	C721.076416,820.320740 725.525818,816.098694 727.262573,809.222839 
	C729.486206,800.419128 724.681030,790.953552 716.739685,788.634521 
	C708.621887,786.263977 700.316345,790.709839 697.876709,799.042786 
	C696.550842,803.571594 696.532898,808.226990 698.892273,813.370300 
z"/>
<path fill="#000000" opacity="1.000000" stroke="none" 
	d="
M222.605270,796.789307 
	C227.249130,814.206299 216.917114,829.488525 196.800964,829.329651 
	C192.979523,829.299500 189.157272,829.273926 185.336288,829.320251 
	C182.837738,829.350525 181.700150,828.212524 181.704346,825.714539 
	C181.727997,811.591064 181.720917,797.467651 181.711792,783.344177 
	C181.710434,781.228394 182.408829,779.785828 184.807907,779.748535 
	C192.272583,779.632568 199.770706,779.187134 207.046616,781.422180 
	C214.721481,783.779663 219.911484,788.753662 222.605270,796.789307 
M207.858322,791.540649 
	C203.753036,789.078369 199.328812,788.049255 194.535141,788.310242 
	C192.266556,788.433838 191.185150,789.356628 191.191376,791.633301 
	C191.214981,800.262939 191.212967,808.892578 191.220093,817.522217 
	C191.221664,819.431641 191.953232,820.516602 194.044724,820.865295 
	C201.640823,822.131775 209.705597,818.255249 212.859100,811.648315 
	C216.247375,804.549438 214.708389,797.627625 207.858322,791.540649 
z"/>
<path fill="#000000" opacity="1.000000" stroke="none" 
	d="
M556.109985,815.251953 
	C555.893982,804.349182 555.843201,793.867004 555.670105,783.386841 
	C555.607361,779.583069 558.097229,779.765625 560.705688,779.669312 
	C563.629700,779.561523 565.075806,780.717957 564.981995,783.724976 
	C564.826233,788.714355 564.813049,793.709167 564.592285,798.695251 
	C564.378479,803.524353 564.107910,808.333374 565.276489,813.096252 
	C566.649597,818.692627 571.380859,822.142090 577.056519,821.616150 
	C582.558838,821.106323 586.486633,817.096802 586.603210,811.302368 
	C586.783997,802.315857 586.766968,793.321960 586.627930,784.334351 
	C586.575073,780.918823 587.773254,779.623901 591.256042,779.611267 
	C594.818542,779.598389 596.403564,780.661194 596.327698,784.454834 
	C596.148010,793.441162 596.456482,802.438660 596.212280,811.421997 
	C595.914795,822.364319 589.659790,829.153931 578.660095,830.110168 
	C569.642822,830.894104 558.299988,827.431519 556.109985,815.251953 
z"/>
<path fill="#000000" opacity="1.000000" stroke="none" 
	d="
M819.672729,793.539734 
	C821.004395,796.075623 823.069214,797.055481 825.331726,797.806763 
	C828.327576,798.801392 831.357971,799.727295 834.269287,800.934204 
	C843.016907,804.560425 846.237427,810.236877 844.363831,818.423889 
	C842.721436,825.600586 835.085999,830.850403 826.866333,830.171631 
	C820.602417,829.654419 814.929382,827.643188 810.296753,823.044434 
	C807.830017,820.595703 808.528259,818.936035 810.657654,816.834900 
	C812.694336,814.825317 814.220215,813.644043 816.700806,816.431763 
	C820.192749,820.356201 824.602478,822.550293 830.049255,821.172363 
	C832.767761,820.484619 835.111938,818.946472 835.386963,815.919006 
	C835.642944,813.100403 833.725220,811.217529 831.314026,810.220825 
	C826.873108,808.385010 822.205200,807.072083 817.841187,805.082275 
	C810.341003,801.662292 807.934998,793.681885 811.989746,786.690552 
	C814.140015,782.983032 817.569946,780.813354 821.556396,780.063538 
	C826.806885,779.075989 832.134766,779.158325 837.219604,781.376526 
	C845.002502,784.771790 845.387756,786.693848 839.304260,792.878296 
	C836.679932,792.706360 835.313599,790.214233 833.046875,789.236328 
	C826.739685,786.515442 821.408569,787.975891 819.672729,793.539734 
z"/>
<path fill="#000000" opacity="1.000000" stroke="none" 
	d="
M435.314575,805.860657 
	C439.397797,811.504272 439.323181,817.122864 436.127472,822.575073 
	C432.745850,828.344421 426.969910,830.260132 420.739075,830.102356 
	C415.749664,829.976135 410.925690,828.505493 406.756165,825.399475 
	C400.499634,820.738770 400.654663,818.573120 407.894196,814.507141 
	C409.295166,815.772217 410.662994,817.222839 412.241272,818.388367 
	C415.705811,820.946838 419.464844,822.581970 423.887756,821.072510 
	C426.183380,820.288940 428.176666,819.116150 428.609283,816.444580 
	C429.080048,813.537170 427.471558,811.730103 425.196533,810.337402 
	C421.444794,808.040649 417.039093,807.530334 413.035828,805.910767 
	C407.656708,803.734436 404.103668,800.064697 403.740845,794.083618 
	C403.419312,788.782776 405.825043,784.676331 410.390045,782.084106 
	C416.941650,778.363831 423.876678,778.703430 430.616821,781.326782 
	C438.432495,784.368774 438.720764,787.039429 432.188385,792.813232 
	C428.964813,791.395386 426.410797,788.467957 422.574524,788.003967 
	C420.890137,787.800232 419.340912,787.591614 417.687683,788.153625 
	C415.521301,788.890198 413.636169,789.810181 413.409790,792.416016 
	C413.196045,794.875793 414.902191,796.078491 416.763580,796.860474 
	C420.592590,798.469055 424.497894,799.902405 428.404510,801.317444 
	C430.959869,802.243103 433.228333,803.554260 435.314575,805.860657 
z"/>
<path fill="#000000" opacity="1.000000" stroke="none" 
	d="
M266.266907,828.037292 
	C265.429626,826.147034 264.843994,824.592102 264.255005,823.038452 
	C264.019379,822.416931 263.958069,821.568481 263.509033,821.213440 
	C258.529297,817.276611 252.718216,820.097778 247.330078,819.339050 
	C244.533203,818.945251 243.811508,821.127930 243.021317,823.249939 
	C240.458527,830.132385 239.992401,830.332703 232.271179,828.603882 
	C231.259033,825.622375 233.217545,823.195801 234.128769,820.680237 
	C238.539383,808.503784 243.237549,796.431763 247.681000,784.266907 
	C248.763657,781.302917 250.061340,779.542053 253.644196,779.577942 
	C257.034576,779.612000 258.651489,780.828552 259.782440,783.985107 
	C264.597015,797.423157 269.651550,810.775208 274.620056,824.158081 
	C275.135254,825.545715 275.864410,826.889343 275.428589,828.721619 
	C272.471649,829.559570 269.485321,829.947693 266.266907,828.037292 
M258.587036,805.683655 
	C257.174591,801.508789 255.762161,797.333923 253.939468,791.946472 
	C251.283417,798.919067 248.751907,804.549866 247.759338,810.986023 
	C251.923859,811.883667 255.607819,811.846069 259.150482,810.941345 
	C260.144867,809.130981 259.135864,807.809082 258.587036,805.683655 
z"/>
<path fill="#000000" opacity="1.000000" stroke="none" 
	d="
M363.398071,822.788757 
	C363.994659,824.887878 365.303894,826.392212 364.884308,828.336304 
	C358.076385,830.632019 356.037292,829.944763 353.994171,823.658264 
	C352.839874,820.106689 350.912262,818.867493 347.413940,819.241699 
	C345.767517,819.417725 344.070435,819.410889 342.423035,819.235657 
	C336.583923,818.614807 332.401642,819.524292 330.779724,826.573914 
	C329.646332,831.500061 324.790924,828.842102 321.440552,828.981140 
	C320.464691,826.355469 322.063019,824.534363 322.770630,822.614929 
	C327.603821,809.504456 332.684448,796.484070 337.405731,783.334290 
	C338.584320,780.051636 340.616699,779.710144 343.498260,779.627075 
	C346.506866,779.540283 348.029358,780.817322 349.012482,783.529785 
	C353.716675,796.508484 358.528595,809.448242 363.398071,822.788757 
M340.067932,800.370300 
	C339.160248,803.801819 336.959320,806.922363 337.339478,810.848877 
	C341.448700,811.947693 345.296936,811.866577 349.609131,810.653503 
	C347.473389,804.430054 345.425720,798.463196 343.062408,791.576599 
	C341.888641,794.958252 341.079285,797.290100 340.067932,800.370300 
z"/>
<path fill="#000000" opacity="1.000000" stroke="none" 
	d="
M293.273682,792.043945 
	C293.499756,789.380371 292.546265,788.265564 290.151978,788.344177 
	C287.826355,788.420593 285.495148,788.307007 283.167480,788.345215 
	C280.213959,788.393799 277.585693,788.572205 277.566498,784.166077 
	C277.548523,780.038330 279.662262,779.626587 282.889587,779.654236 
	C293.034271,779.741150 303.180573,779.726379 313.325470,779.650940 
	C316.340332,779.628540 318.351532,780.019348 318.420746,783.880554 
	C318.494507,787.996887 316.401520,788.382019 313.138916,788.404724 
	C302.350433,788.479736 302.349274,788.559631 302.343903,799.205261 
	C302.339630,807.687500 302.243500,816.171448 302.386383,824.651245 
	C302.443115,828.016785 301.339081,829.430908 297.805878,829.402100 
	C294.451294,829.374695 293.118378,828.476624 293.200073,824.824341 
	C293.441742,814.022827 293.290314,803.212524 293.273682,792.043945 
z"/>
<path fill="#000000" opacity="1.000000" stroke="none" 
	d="
M608.124878,781.283447 
	C609.594788,779.389465 611.354126,779.710144 612.974609,779.704407 
	C623.459167,779.667603 633.944336,779.730713 644.428345,779.646667 
	C647.524231,779.621887 649.405396,780.199158 649.414429,783.987000 
	C649.423401,787.727966 647.655029,788.332275 644.504333,788.399841 
	C633.347717,788.639160 633.350525,788.717346 633.347290,799.950012 
	C633.344849,808.271179 633.213196,816.595093 633.393127,824.912231 
	C633.471069,828.511536 631.979065,829.416992 628.640381,829.400513 
	C625.280029,829.383972 624.445679,828.093994 624.503174,824.912170 
	C624.692505,814.430847 624.464417,803.941772 624.673035,793.461121 
	C624.751404,789.526123 623.347595,787.936707 619.454163,788.314270 
	C617.640747,788.490112 615.795654,788.352417 613.965088,788.335144 
	C607.826172,788.277161 607.657898,788.088318 608.124878,781.283447 
z"/>
<path fill="#000000" opacity="1.000000" stroke="none" 
	d="
M514.655884,806.999878 
	C514.660095,799.012573 514.798584,791.521973 514.612549,784.039429 
	C514.520325,780.330566 516.292419,779.627319 519.492615,779.639160 
	C522.791260,779.651428 523.807739,781.019165 523.759277,784.178040 
	C523.596191,794.813416 523.697266,805.452576 523.560791,816.088562 
	C523.517700,819.439758 524.745789,821.027466 528.218689,820.916870 
	C532.207703,820.789917 536.205566,820.965820 540.196838,820.880432 
	C543.371277,820.812561 545.165527,821.810242 545.252686,825.396118 
	C545.341858,829.066528 543.281799,829.381348 540.478149,829.352234 
	C533.324402,829.277893 526.167725,829.223083 519.015625,829.349792 
	C515.815063,829.406494 514.547302,828.198242 514.630554,824.968933 
	C514.780640,819.149536 514.662354,813.323242 514.655884,806.999878 
z"/>
<path fill="#000000" opacity="1.000000" stroke="none" 
	d="
M662.797363,806.000000 
	C662.799744,798.517883 662.928101,791.532593 662.755249,784.554871 
	C662.664307,780.885193 664.060547,779.577271 667.723572,779.608154 
	C671.169312,779.637268 672.405823,780.846924 672.372192,784.292297 
	C672.241028,797.756653 672.242554,811.223572 672.352234,824.688232 
	C672.380127,828.108826 671.141418,829.364685 667.691101,829.397827 
	C664.030579,829.432922 662.619202,828.142456 662.743103,824.452393 
	C662.943787,818.474426 662.797791,812.484741 662.797363,806.000000 
z"/>
</svg>